<svg width="815" height="631" viewBox="0 0 815 631" fill="none" xmlns="http://www.w3.org/2000/svg">
<path d="M692.696 342.099L604.512 420.811L405.22 598.659L401.187 602.256L378.717 622.305L331.608 580.213L327.46 576.514L241.331 499.574H241.312L213.715 474.905L197.409 460.329L148.848 416.958L142.289 411.093L64.8875 341.945C49.5103 328.043 36.4768 312.172 26.2055 294.841C25.263 293.289 24.3766 291.721 23.5095 290.152C5.15401 257.055 -2.69971 220.005 0.820307 183.115C4.34032 146.225 19.0963 110.939 43.45 81.1749C67.8037 51.4108 100.802 28.3332 138.781 14.5045C176.761 0.675727 218.235 -3.36307 258.599 2.83644H258.618C259.334 2.93874 260.032 3.04099 260.748 3.17738C268.32 4.38585 275.815 5.9623 283.199 7.89981C302.522 12.9514 320.991 20.3679 338.092 29.9433C339.884 30.9492 341.656 31.9721 343.409 33.012C355.944 40.5035 367.609 49.1227 378.226 58.738L378.886 58.1413L379.546 58.738C385.977 52.9232 392.795 47.469 399.962 42.4057C401.525 41.2975 403.11 40.2064 404.693 39.1494C428.936 22.9832 456.572 11.4608 485.909 5.28735C515.246 -0.886139 545.668 -1.58088 575.312 3.24559C582.892 4.45355 590.394 6.03572 597.782 7.98503C600.252 8.61592 602.702 9.29787 605.134 10.0309C607.095 10.6105 609.055 11.2071 610.996 11.855C627.162 17.0813 642.593 24.0048 656.974 32.4835C660.122 34.3417 663.226 36.2852 666.286 38.3141C692.189 55.3434 713.704 77.2482 729.347 102.52C744.99 127.791 754.39 155.829 756.9 184.702C759.41 213.575 754.97 242.597 743.886 269.769C732.803 296.941 715.338 321.617 692.696 342.099V342.099Z" fill="#FFC0D3"/>
<path opacity="0.15" d="M604.512 420.811L405.22 598.659L401.186 602.256L378.716 622.305L331.608 580.213L327.46 576.513L241.331 499.574C255.168 496.659 276.431 500.665 284.216 504.143C302.671 512.378 317.847 525.897 336.584 533.603C353.317 540.434 372.011 542.302 389.989 538.939C423.581 532.563 449.576 509.07 472.499 485.953C495.421 462.818 518.853 437.996 551.069 427.272C568.054 421.612 586.301 420.333 604.512 420.811Z" fill="black"/>
<path d="M749.399 62.0283C721.976 37.1568 687.84 19.2021 650.376 9.94555C647.888 9.31476 645.418 8.75215 642.911 8.22365C632.131 5.89446 621.173 4.30448 610.129 3.4672C608.206 3.29671 606.283 3.17737 604.342 3.09213C594.655 2.53805 584.937 2.57222 575.255 3.19442C522.22 6.40382 472.193 26.6256 434.175 60.2211L433.496 59.6074L432.818 60.2211C407.979 38.3016 377.839 21.9119 344.785 12.3494C342.918 11.8038 341.033 11.2753 339.148 10.7809C313.691 4.10331 287.133 1.53523 260.69 3.19442C259.956 3.22851 259.22 3.27965 258.504 3.34785C210.02 6.70976 164.08 24.3107 127.68 53.47C124.248 56.1977 120.874 59.0619 117.594 62.0283C86.7788 89.9484 65.6202 125.38 56.7021 163.995C47.7841 202.611 51.4927 242.739 67.3751 279.48C68.035 281.083 68.7512 282.668 69.505 284.254C80.7233 308.446 97.0588 330.424 117.594 348.952L190.961 414.452L196.73 419.617L355.491 561.34L359.582 565.006L401.28 602.239L433.496 631L749.399 348.935C791.408 310.86 815 259.269 815 205.482C815 151.694 791.408 100.103 749.399 62.0283ZM745.422 345.304L433.496 623.806L405.315 598.642L364.503 562.21L360.412 558.562L204.742 419.566L199.067 414.503L121.59 345.321C101.701 327.38 85.8499 306.12 74.9154 282.719C74.1616 281.134 73.4445 279.548 72.7855 277.963C57.2015 242.115 53.5182 202.935 62.1868 165.222C70.8555 127.51 91.4996 92.9032 121.59 65.6425C125.097 62.4716 128.685 59.437 132.354 56.5387H132.373C167.392 28.8238 211.317 11.997 257.693 8.53056C263.858 8.05321 270.028 7.81451 276.205 7.81451C278.523 7.81451 280.823 7.8486 283.142 7.91679C302.086 8.44428 320.874 11.1951 339.035 16.1C340.901 16.5944 342.767 17.1229 344.615 17.6855C364.26 23.4765 382.881 31.7963 399.904 42.3886C410.986 49.2609 421.342 57.0454 430.839 65.6425L432.837 67.4497L433.496 66.853L434.156 67.4497L436.154 65.6425C457.274 46.5212 482.515 31.5301 510.309 21.5999C538.103 11.6697 567.857 7.01223 597.725 7.91679C600.119 7.98499 602.513 8.08728 604.907 8.24072C606.83 8.34301 608.753 8.46236 610.657 8.63285C622.809 9.61839 634.847 11.5289 646.643 14.3441C649.169 14.9237 651.676 15.5545 654.164 16.2535C690.332 26.145 723.047 44.3463 749.117 69.0816C775.188 93.8169 793.723 124.241 802.916 157.387C812.108 190.532 811.643 225.267 801.567 258.201C791.49 291.136 772.146 321.146 745.422 345.304V345.304Z" fill="#3F3D56"/>
<path opacity="0.15" d="M307.422 15.6398C295.32 24.2834 282.331 32.262 274.47 44.0765C268.683 52.8053 266.176 62.949 264.309 72.9735C260.69 92.4768 259.145 112.457 252.056 131.159C244.987 149.861 231.189 167.728 210.735 174.701C198.049 179.014 184.062 178.775 170.546 177.94C137.199 175.894 103.625 170.49 73.6147 157.209C56.8377 149.776 40.5687 139.752 21.9258 138.644C18.1318 138.423 14.3223 138.612 10.5776 139.206C26.8445 93.283 60.8838 54.2082 106.445 29.1572C152.006 4.10626 206.031 -5.23932 258.598 2.83656H258.617C259.334 2.93885 260.031 3.04111 260.747 3.1775C268.32 4.38597 275.814 5.96241 283.199 7.89992C291.432 10.0538 299.52 12.6381 307.422 15.6398Z" fill="black"/>
<path d="M231.263 609.709L241.835 609.708L246.864 568.933L231.261 568.934L231.263 609.709Z" fill="#9E616A"/>
<path d="M228.566 606.258L231.541 606.257L243.158 601.533L249.385 606.257H249.386C252.904 606.257 256.279 607.655 258.767 610.143C261.255 612.631 262.653 616.005 262.653 619.524V619.955L228.566 619.956L228.566 606.258Z" fill="#2F2E41"/>
<path d="M280.376 609.709L290.948 609.708L295.977 568.933L280.374 568.934L280.376 609.709Z" fill="#9E616A"/>
<path d="M277.679 606.258L280.655 606.257L292.272 601.533L298.498 606.257H298.499C302.018 606.257 305.392 607.655 307.88 610.143C310.368 612.631 311.766 616.005 311.766 619.524V619.955L277.68 619.956L277.679 606.258Z" fill="#2F2E41"/>
<path d="M288.826 386.565L205.767 388.732L207.212 429.178C207.212 429.178 205.767 440.011 208.656 442.9C211.545 445.789 212.99 445.789 211.545 450.845C210.101 455.901 217.733 464.158 216.806 465.085C215.879 466.012 213.712 471.068 213.712 471.068L220.934 512.236C220.934 512.236 225.99 583.739 227.435 585.183C228.879 586.628 230.324 585.183 228.879 588.795C227.435 592.406 225.99 590.961 227.435 592.406C228.714 593.785 229.92 595.232 231.046 596.739H248.508C248.508 596.739 249.824 589.517 249.824 588.795C249.824 588.072 251.269 583.739 251.269 583.017C251.269 582.294 249.992 581.018 249.992 581.018C249.551 579.549 249.253 578.042 249.102 576.516C249.102 575.072 244.769 519.459 244.769 519.459L253.436 447.234L274.381 518.014C274.381 518.014 274.381 580.128 275.825 581.572C277.27 583.017 277.27 582.294 276.548 585.183C275.825 588.072 272.936 587.35 275.103 589.517C277.27 591.684 277.992 588.072 277.27 591.684L276.548 595.295L298.215 595.605C298.215 595.605 301.104 589.517 299.659 587.35C298.215 585.183 298.302 585.775 300.064 582.229C301.826 578.683 302.548 577.961 301.826 577.239C301.104 576.516 301.104 572.675 301.104 572.675L297.493 503.569C297.493 503.569 296.77 430.622 296.77 428.455C296.716 427.34 296.921 426.228 297.37 425.206V422.265L294.604 411.844L288.826 386.565Z" fill="#2F2E41"/>
<path d="M382.823 229.041C382.424 230.15 381.786 231.159 380.955 231.995C380.124 232.832 379.12 233.476 378.013 233.882C376.906 234.288 375.723 234.447 374.549 234.347C373.374 234.247 372.235 233.89 371.213 233.302L335.159 263.507L333.2 248.743L368.464 221.748C369.565 220.096 371.234 218.906 373.154 218.403C375.074 217.899 377.112 218.118 378.882 219.017C380.652 219.916 382.031 221.433 382.757 223.28C383.483 225.128 383.507 227.177 382.823 229.041V229.041Z" fill="#9E616A"/>
<path d="M223.844 241.507C236.21 241.507 246.234 231.482 246.234 219.117C246.234 206.752 236.21 196.727 223.844 196.727C211.479 196.727 201.455 206.752 201.455 219.117C201.455 231.482 211.479 241.507 223.844 241.507Z" fill="#9E616A"/>
<path d="M241.996 196.835C239.911 191.866 230.978 188.917 216.843 189.361C202.707 189.805 200.232 206.662 200.232 206.662C192.446 213.919 205.016 236.576 207.197 233.452C209.378 230.328 213.039 233.281 213.039 233.281L209.55 213.654C213.235 215.072 217.198 216.024 220.663 214.372L214.921 211.302C219.68 211.894 224.44 212.486 229.199 213.078L223.311 208.548C223.453 208.501 223.596 208.452 223.739 208.404C226.1 209.422 228.629 209.997 231.199 210.098C234.201 210.076 237.391 208.669 238.649 205.943C238.984 205.194 239.165 204.386 239.182 203.567C243.321 204.911 245.495 209.76 245.495 209.76C244.709 205.357 243.538 201.032 241.996 196.835V196.835Z" fill="#2F2E41"/>
<path d="M241.767 242.508C236.767 242.508 233.547 243.198 225.767 244.508C211.407 246.928 220.006 260.573 220.006 260.573C220.006 260.573 220.656 260.243 218.896 260.573C217.136 260.903 211.136 266.093 211.136 266.093L200.406 275.623C184.236 288.313 187.857 308.113 187.857 308.113L211.436 331.843L201.107 379.453C201.107 379.453 205.496 386.523 203.226 389.693C200.956 392.863 223.226 391.953 223.226 391.953C238.596 398.803 292.746 393.013 292.746 393.013C291.996 391.053 284.746 375.863 284.746 375.863C287.896 370.423 284.896 362.563 284.896 362.563C284.896 362.563 281.766 325.383 279.766 320.243C277.766 315.103 284.886 287.253 289.566 287.553C294.246 287.853 324.476 272.433 324.476 272.433C324.476 272.433 323.716 271.223 333.696 267.143C339.429 264.89 344.684 261.576 349.186 257.373L353.286 249.183C351.316 249.943 344.666 237.403 344.666 237.403L341.766 238.508L340.086 238.023C340.086 238.023 326.976 241.753 324.296 244.473C321.616 247.193 320.716 246.433 318.296 247.043C315.876 247.653 315.576 249.353 314.816 249.163C314.056 248.973 312.706 251.273 311.646 250.973C310.586 250.673 308.316 251.883 306.806 252.183C305.296 252.483 294.566 257.023 294.566 257.023C287.926 253.663 269.926 255.023 269.926 255.023C269.926 255.023 264.036 251.553 262.366 255.023C261.917 256.009 261.196 256.846 260.287 257.436C259.378 258.026 258.32 258.344 257.236 258.353L250.056 255.283C249.639 256.806 241.808 240.93 241.767 242.508Z" fill="#EF486C"/>
<path d="M207.487 428.841C206.703 427.961 206.121 426.919 205.783 425.79C205.445 424.66 205.359 423.47 205.531 422.304C205.702 421.137 206.128 420.022 206.777 419.038C207.426 418.054 208.283 417.223 209.287 416.606L199.115 376.618L213.022 381.947L220.752 419.708C221.677 421.465 221.926 423.499 221.451 425.427C220.976 427.354 219.811 429.041 218.176 430.167C216.541 431.292 214.55 431.779 212.58 431.535C210.61 431.291 208.798 430.332 207.487 428.841V428.841Z" fill="#9E616A"/>
<path d="M188.766 300.508L187.51 316.477C187.51 316.477 185.948 334.02 186.357 337.264C186.766 340.508 187.528 360.319 187.528 360.319L200.766 386.508L215.766 382.508L214.869 370.223L215.766 381.508L217.766 371.508L212.766 354.508L215.766 348.508L214.253 328.367L188.766 300.508Z" fill="#EF486C"/>
<path d="M543.908 263.188L548.86 264.249C548.892 262.177 549.15 260.116 549.63 258.1C550.08 260.568 551.029 262.919 552.418 265.008L580.82 271.074L608.089 242.297C608.13 227.908 600.14 216.974 585.814 216.974C584.951 216.974 584.056 217.015 583.151 217.099C575.411 215.803 567.47 217.562 561 222.003C554.53 226.445 550.036 233.224 548.464 240.913C538.31 250.911 541.993 256.789 543.908 263.188Z" fill="#2F2E41"/>
<path d="M529.944 599.723H519.642L514.741 559.985H529.946L529.944 599.723Z" fill="#FFB6B6"/>
<path d="M534.553 619.285H527.242L525.937 612.383L522.595 619.285H503.206C502.276 619.285 501.371 618.988 500.623 618.438C499.874 617.887 499.321 617.111 499.045 616.224C498.768 615.337 498.782 614.384 499.085 613.506C499.388 612.627 499.964 611.868 500.729 611.34L516.213 600.647V593.669L532.499 594.641L534.553 619.285Z" fill="#2F2E41"/>
<path d="M650.643 588.509L641.682 593.593L617.809 561.449L631.034 553.946L650.643 588.509Z" fill="#FFB6B6"/>
<path d="M664.305 603.249L657.947 606.857L653.406 601.498L653.905 609.15L637.041 618.719C636.233 619.177 635.299 619.366 634.376 619.256C633.454 619.146 632.59 618.745 631.911 618.109C631.233 617.474 630.775 616.639 630.605 615.725C630.435 614.811 630.562 613.867 630.966 613.03L639.156 596.089L635.713 590.02L650.357 582.828L664.305 603.249Z" fill="#2F2E41"/>
<path d="M491.862 270.15C493.182 270.341 494.444 270.819 495.56 271.55C496.675 272.282 497.617 273.249 498.318 274.384C499.019 275.519 499.463 276.793 499.618 278.118C499.773 279.443 499.636 280.786 499.216 282.052L514.982 295.697L509.026 307.3L487.033 287.717C484.953 286.871 483.255 285.291 482.262 283.277C481.269 281.263 481.049 278.954 481.645 276.789C482.24 274.623 483.609 272.751 485.492 271.528C487.375 270.304 489.642 269.814 491.862 270.15V270.15Z" fill="#FFB6B6"/>
<path d="M505.49 312.619L494.945 295.844L506.669 283.857L514.996 293.989L525.311 298.591L539.466 307.216C542.281 303.903 563.971 278.985 573.65 286.16C574.811 286.952 575.788 287.987 576.512 289.192C577.237 290.397 577.691 291.745 577.846 293.143C578.529 299.814 572.551 306.599 572.324 306.85L559.539 324.096C559.142 325.18 554.911 336.348 548.31 339.352C547.373 339.801 546.352 340.05 545.313 340.084C544.274 340.118 543.24 339.936 542.275 339.549C524.783 332.73 512.997 325.038 507.738 317.073C506.807 315.687 506.052 314.191 505.49 312.619Z" fill="#2F2E41"/>
<path d="M544.507 347.631C544.507 347.631 514.214 395.883 519.702 401.371C525.19 406.859 533.73 408.301 533.73 408.301L552.631 383.809L544.507 347.631Z" fill="#2F2E41"/>
<path d="M571.29 281.73L557.013 291.388C550.377 295.877 545.386 302.408 542.797 309.99C540.207 317.572 540.161 325.791 542.665 333.401L546.684 345.618L571.29 281.73Z" fill="#2F2E41"/>
<path d="M596.535 413.445L598.444 420.093L604.957 500.264L637.497 560.908L621.966 572.001L577.593 514.316L560.043 457.038L532.48 583.834L511.773 582.355L526.154 406.554L553.445 357.071L596.535 413.445Z" fill="#2F2E41"/>
<path d="M573.718 284.159L553.847 300.399C549.486 303.963 546.346 308.799 544.864 314.232V314.232C544.191 316.7 543.871 319.25 543.914 321.807L544.506 357.071L526.288 405.762C526.288 405.762 575.681 424.421 582.266 407.957C588.852 391.493 573.718 284.159 573.718 284.159Z" fill="#EF486C"/>
<path d="M546.045 391.493L542.752 378.321L543.556 345.548C543.62 343.644 553.771 314.006 566.563 282.525L577.568 271.52L583.501 267.659L596.561 279.714C596.561 279.714 594.9 312.711 595.438 346.49C595.587 355.836 593.944 366.751 593.243 375.028L599.243 401.691V416.531L598.853 416.61C598.463 416.689 592.45 416.504 567.775 416.504C547.33 416.504 560.941 402.008 546.045 391.493Z" fill="#2F2E41"/>
<path opacity="0.2" d="M591.025 309.141L594.026 327.864L573.718 336.241L591.025 309.141Z" fill="black"/>
<path d="M570.568 264.147C581.549 264.147 590.45 255.245 590.45 244.265C590.45 233.284 581.549 224.383 570.568 224.383C559.588 224.383 550.687 233.284 550.687 244.265C550.687 255.245 559.588 264.147 570.568 264.147Z" fill="#FFB6B6"/>
<path opacity="0.2" d="M603.883 345.144C598.591 351.271 591.414 355.466 583.478 357.07C575.543 358.674 567.3 357.595 560.044 354.004L555.717 351.863L603.883 345.144Z" fill="black"/>
<path d="M534.698 340.567C535.585 339.57 536.679 338.781 537.904 338.253C539.13 337.725 540.455 337.473 541.789 337.513C543.122 337.553 544.43 337.885 545.621 338.486C546.812 339.087 547.857 339.941 548.682 340.989L568.757 335.354L575.157 346.717L546.696 354.278C544.844 355.547 542.59 356.093 540.362 355.812C538.133 355.53 536.086 354.442 534.607 352.752C533.128 351.061 532.32 348.888 532.337 346.642C532.354 344.396 533.194 342.235 534.698 340.567V340.567Z" fill="#FFB6B6"/>
<path d="M577.646 352.599L557.838 352.154L554.296 335.765L567.34 334.4L576.864 328.329L591.862 321.27C590.649 317.095 581.809 285.264 593.129 281.142C594.431 280.609 595.832 280.364 597.237 280.424C598.642 280.484 600.017 280.847 601.269 281.489C607.212 284.594 609.579 293.322 609.664 293.65L617.009 313.823C617.695 314.751 624.682 324.436 623.552 331.6C623.41 332.63 623.055 333.619 622.511 334.504C621.967 335.39 621.245 336.153 620.39 336.745C605.06 347.583 592.147 353.179 582.602 353.178C580.933 353.19 579.268 352.996 577.646 352.599V352.599Z" fill="#2F2E41"/>
<path d="M546.727 231.185C548.319 233.256 553.802 235.087 560.314 236.564C560.304 236.429 560.304 236.294 560.304 236.158C560.336 234.087 560.595 232.025 561.074 230.01C561.524 232.478 562.473 234.829 563.862 236.918C563.966 237.074 564.07 237.23 564.185 237.386C569.772 238.489 575.681 239.342 580.311 239.914C577.127 251.379 564.923 260.784 566.245 267.755L602.003 275.058C601.783 272.162 602.014 269.249 602.689 266.423C603.373 270.152 605.181 273.583 607.87 276.255L610.908 276.879L611.813 272.416C619.658 253.574 608.723 234.286 590.808 224.308C587.614 219.52 582.654 216.191 577.013 215.049L572.549 214.134C569.734 213.558 566.833 213.542 564.012 214.087C561.191 214.632 558.504 215.728 556.106 217.311C553.709 218.895 551.646 220.935 550.037 223.315C548.427 225.696 547.303 228.37 546.727 231.185Z" fill="#2F2E41"/>
<path d="M108.087 595.089L107.605 584.257C102.583 581.573 96.9819 580.155 91.2876 580.126C99.1246 586.534 98.1452 598.885 103.458 607.501C105.136 610.176 107.394 612.439 110.066 614.122C112.737 615.805 115.752 616.866 118.889 617.225L125.448 621.241C126.347 616.224 126.149 611.072 124.866 606.139C123.583 601.206 121.246 596.61 118.015 592.668C116.181 590.474 114.078 588.52 111.756 586.851C110.185 590.993 108.087 595.089 108.087 595.089Z" fill="#F2F2F2"/>
<path d="M92.1872 621.494H774.569C774.884 621.493 775.186 621.367 775.409 621.144C775.631 620.92 775.756 620.618 775.756 620.303C775.756 619.988 775.631 619.685 775.409 619.462C775.186 619.239 774.884 619.113 774.569 619.112H92.1872C91.872 619.113 91.5701 619.239 91.3475 619.462C91.125 619.685 91 619.988 91 620.303C91 620.618 91.125 620.92 91.3475 621.144C91.5701 621.367 91.872 621.493 92.1872 621.494Z" fill="#CACACA"/>
<path d="M462.378 183.054C464.852 193.924 466.028 206.247 459.428 215.974C456.624 220.147 452.507 223.265 447.731 224.836C442.896 226.269 437.798 226.582 432.824 225.751C421.569 224.192 411.566 218.329 400.496 216.053C395.611 215.049 390.427 214.717 385.724 216.65C382.201 218.098 378.49 221.01 378.473 225.165C378.455 229.43 382.16 232.262 385.845 233.573C390.762 235.323 395.871 234.646 400.971 234.425C406.463 234.188 412.064 234.684 416.627 238.048C420.551 241.111 423.561 245.191 425.328 249.845C427.622 255.411 428.553 261.396 430.019 267.203C431.33 272.424 433.184 277.494 435.551 282.329C440.196 291.805 446.708 300.245 454.695 307.143C458.634 310.534 463.421 313.987 468.801 314.298C472.95 314.538 477.994 312.794 479.594 308.591C480.188 306.776 480.13 304.811 479.429 303.035C478.729 301.258 477.43 299.783 475.757 298.862C472.201 297.067 468.328 299.627 467.18 303.141C466.879 303.951 466.773 304.82 466.872 305.679C466.972 306.537 467.272 307.36 467.75 308.08C468.829 309.688 466.231 311.191 465.16 309.594C462.673 305.886 463.973 300.899 467.019 297.928C468.504 296.413 470.491 295.491 472.607 295.333C474.723 295.176 476.824 295.793 478.518 297.071C480.278 298.411 481.608 300.236 482.346 302.321C483.084 304.407 483.197 306.662 482.671 308.811C481.392 313.427 476.855 316.364 472.325 317.091C466.731 317.99 461.347 315.791 456.832 312.615C452.301 309.344 448.181 305.539 444.563 301.282C437.205 292.821 431.674 282.931 428.316 272.233C425.014 261.652 424.774 247.673 414.962 240.527C409.913 236.85 403.727 237.258 397.807 237.596C392.582 237.894 387.484 237.84 382.69 235.474C378.732 233.52 375.538 229.915 375.472 225.321C375.406 220.684 378.698 216.956 382.577 214.843C392.825 209.262 405.131 213.763 415.199 217.492C425.323 221.241 436.883 225.642 447.642 221.696C452.608 219.767 456.606 215.947 458.76 211.074C461.365 205.548 461.736 199.279 461.134 193.283C460.78 190.108 460.229 186.958 459.485 183.852C459.057 181.972 461.949 181.169 462.378 183.054V183.054Z" fill="#3F3D56"/>
<path d="M443.989 152.562C446.955 162.467 451.428 171.856 457.249 180.402C458.689 182.502 460.202 184.549 461.789 186.542C463.022 184.301 464.516 182.213 466.239 180.322C472.289 173.672 480.399 169.322 488.269 164.962C496.139 160.602 504.129 155.922 509.689 148.852C512.184 145.669 513.97 141.991 514.929 138.062C516.189 132.732 515.709 127.172 512.599 122.722C508.079 116.252 499.069 113.972 491.409 115.842C483.739 117.712 477.319 123.042 472.339 129.162C473.969 121.642 466.039 114.382 458.369 115.042C450.699 115.712 444.549 122.412 442.509 129.832C440.459 137.242 441.789 145.182 443.989 152.562Z" fill="#EF486C"/>
<g opacity="0.2">
<path opacity="0.2" d="M457.249 180.402C458.689 182.502 460.202 184.548 461.789 186.542C463.022 184.3 464.516 182.213 466.239 180.322C472.289 173.672 480.399 169.322 488.269 164.962C496.139 160.602 504.129 155.922 509.689 148.852C512.184 145.669 513.971 141.99 514.929 138.062C497.237 140.514 480.981 149.139 469.029 162.412C464.244 167.8 460.275 173.861 457.249 180.402V180.402Z" fill="black"/>
</g>
<path d="M693.853 583.927C695.165 582.88 693.435 578.753 689.989 574.708C686.543 570.664 682.687 568.235 681.375 569.282C680.063 570.329 681.793 574.456 685.239 578.5C688.685 582.544 692.542 584.974 693.853 583.927Z" fill="#2F2E41"/>
<path d="M707.829 614.289C718.521 612.609 725.782 602.859 724.047 592.51C722.312 582.161 712.238 575.133 701.546 576.812C690.854 578.492 683.594 588.243 685.329 598.591C687.064 608.94 697.138 615.968 707.829 614.289Z" fill="#2F2E41"/>
<path d="M713.745 610H707.745V620H713.745V610Z" fill="#2F2E41"/>
<path d="M701.745 610H695.745V620H701.745V610Z" fill="#2F2E41"/>
<path d="M711.792 585.249C705.682 580.3 702.285 575.762 706.86 570.337C711.434 564.911 720.096 564.524 726.206 569.473C732.316 574.421 733.561 582.832 728.987 588.257C724.413 593.683 717.902 590.197 711.792 585.249Z" fill="#FFC0D3"/>
<path d="M698.104 592.185C701.804 592.08 704.716 589.091 704.607 585.51C704.498 581.928 701.41 579.11 697.71 579.215C694.01 579.32 691.098 582.309 691.207 585.891C691.315 589.472 694.403 592.29 698.104 592.185Z" fill="white"/>
<path d="M695.745 586C696.849 586 697.745 585.105 697.745 584C697.745 582.895 696.849 582 695.745 582C694.64 582 693.745 582.895 693.745 584C693.745 585.105 694.64 586 695.745 586Z" fill="#3F3D56"/>
<path d="M687.187 591.379C685.864 592.604 684.929 596.574 686.79 598.297C688.65 600.019 694.119 598.187 695.442 596.962C696.764 595.738 693.44 595.585 691.58 593.862C689.719 592.14 688.51 590.155 687.187 591.379Z" fill="white"/>
<path d="M723.305 620.936C724.893 620.349 724.613 615.903 722.679 611.006C720.745 606.11 717.89 602.617 716.302 603.204C714.714 603.792 714.994 608.237 716.928 613.134C718.861 618.031 721.716 621.524 723.305 620.936Z" fill="#2F2E41"/>
</svg>
